<?xml version="1.0" standalone="no"?>
<!DOCTYPE svg PUBLIC "-//W3C//DTD SVG 20010904//EN"
 "http://www.w3.org/TR/2001/REC-SVG-20010904/DTD/svg10.dtd">
<svg version="1.0" xmlns="http://www.w3.org/2000/svg"
 width="573.000000pt" height="621.000000pt" viewBox="0 0 573.000000 621.000000"
 preserveAspectRatio="xMidYMid meet">

<g transform="translate(0.000000,621.000000) scale(0.100000,-0.100000)"
fill="#ffffff" stroke="none">
<path d="M2730 5668 c-30 -3 -107 -11 -170 -16 -195 -17 -384 -58 -478 -102
-33 -15 -73 -31 -90 -34 -16 -4 -38 -16 -48 -27 -9 -10 -21 -19 -26 -19 -5 0
-50 -21 -101 -46 -50 -25 -113 -54 -139 -64 -26 -10 -64 -31 -85 -47 -21 -16
-74 -51 -118 -78 -143 -89 -274 -196 -406 -334 -72 -75 -138 -136 -147 -136
-9 0 -32 -22 -50 -50 -18 -27 -46 -66 -63 -85 -84 -95 -299 -495 -314 -585
-12 -70 -67 -229 -86 -245 -18 -15 -48 -145 -85 -360 -24 -143 -25 -493 -1
-595 16 -72 32 -197 28 -227 -3 -26 43 -187 74 -253 70 -155 89 -194 93 -191
2 2 -8 31 -22 64 -14 33 -32 90 -41 128 -18 81 -49 212 -64 269 -29 111 -38
195 -33 293 2 56 9 102 13 102 5 0 9 6 9 13 0 22 21 87 28 87 4 0 7 -41 8 -90
1 -83 3 -93 26 -118 17 -17 30 -48 38 -87 7 -33 18 -76 25 -95 7 -19 23 -78
35 -130 56 -251 144 -497 261 -735 85 -173 124 -238 158 -261 12 -9 27 -30 35
-47 7 -18 30 -52 50 -75 20 -24 36 -51 36 -60 0 -9 78 -93 173 -186 94 -93
163 -166 152 -163 -27 10 26 -32 76 -58 56 -30 239 -157 239 -167 0 -9 230
-125 315 -158 33 -13 67 -29 76 -36 22 -20 402 -125 514 -143 22 -3 35 -9 29
-13 -6 -4 -64 4 -130 17 -65 14 -131 25 -146 25 -15 0 -53 12 -85 26 -57 26
-144 47 -233 58 l-45 5 60 -28 c56 -26 117 -42 207 -56 21 -3 40 -10 43 -14 3
-5 -5 -7 -17 -5 -13 2 -8 -2 10 -9 18 -7 36 -18 40 -24 10 -16 121 -40 157
-33 25 4 20 7 -35 19 -108 23 -50 24 97 2 76 -11 158 -22 183 -25 25 -2 -12
-3 -82 -2 -138 2 -155 -7 -43 -23 90 -13 605 -6 668 8 27 6 65 10 85 9 114 -7
533 107 599 163 10 9 43 26 73 38 30 13 80 36 110 51 30 16 72 36 93 44 21 9
55 28 75 44 21 15 73 50 117 77 145 89 270 192 405 332 73 76 137 137 143 135
16 -5 53 36 72 78 10 22 25 42 34 45 9 3 32 31 51 63 19 31 46 73 62 93 39 52
196 370 209 426 27 112 72 249 87 260 15 12 46 152 83 368 19 107 19 525 1
575 -7 19 -18 88 -24 155 -11 122 -44 262 -77 325 -10 19 -21 46 -24 60 -7 27
-76 160 -77 147 0 -4 14 -40 30 -79 17 -38 30 -76 30 -84 0 -8 16 -78 36 -157
59 -233 80 -350 72 -388 -5 -19 -6 -60 -3 -91 5 -48 3 -58 -10 -58 -9 0 -15
-9 -15 -24 0 -30 -17 -76 -27 -76 -5 0 -8 40 -8 89 0 80 -3 92 -23 114 -24 25
-52 111 -52 159 0 14 -3 28 -8 30 -4 2 -27 82 -51 178 -71 286 -141 473 -278
742 -53 104 -88 160 -119 190 -24 24 -44 50 -44 59 0 9 -17 36 -39 60 -21 24
-42 55 -46 69 -4 14 -82 98 -172 188 -91 89 -159 162 -152 162 19 1 -26 36
-81 64 -50 25 -191 124 -230 160 -29 27 -196 113 -306 156 -41 17 -85 36 -97
44 -28 18 -223 74 -402 117 -161 39 -152 52 11 16 60 -13 124 -25 142 -26 19
-1 52 -11 75 -22 41 -22 175 -56 212 -56 11 0 31 -2 45 -6 14 -4 -3 7 -37 24
-33 16 -90 34 -125 40 -99 16 -143 30 -128 39 9 6 7 10 -9 15 -11 3 -21 10
-21 14 0 14 -129 42 -147 32 -13 -7 -7 -10 25 -16 23 -4 44 -10 47 -14 2 -4
-51 1 -118 11 -67 11 -156 23 -197 28 -68 8 -64 8 45 5 66 -2 131 -6 145 -9
21 -5 20 -4 -5 8 -16 8 -61 17 -100 21 -97 9 -468 11 -535 3z m500 -249 c80
-6 161 -17 180 -24 19 -8 53 -17 74 -20 144 -24 518 -168 583 -225 17 -16 63
-45 102 -65 39 -21 105 -67 147 -104 42 -36 94 -78 116 -93 45 -30 211 -198
230 -233 7 -13 40 -58 72 -101 89 -118 172 -255 236 -389 79 -166 97 -221 95
-280 -2 -28 5 -74 15 -105 10 -30 29 -94 41 -143 12 -48 24 -85 26 -83 3 2 0
21 -6 43 -22 78 -9 155 18 105 13 -25 52 -175 62 -242 7 -48 7 -44 3 25 -2 44
-9 96 -14 115 -5 20 -12 72 -14 115 -3 44 -14 109 -24 145 -30 101 -107 301
-146 379 -20 39 -36 74 -36 78 0 16 64 -56 90 -103 45 -77 121 -255 173 -399
57 -159 67 -205 53 -227 -7 -12 -7 -29 2 -60 7 -24 24 -126 37 -227 21 -158
23 -193 14 -260 -6 -42 -12 -125 -13 -186 -5 -212 -110 -637 -205 -823 -12
-23 -21 -49 -21 -59 0 -35 -128 -232 -256 -393 -158 -199 -349 -375 -534 -491
-56 -35 -125 -79 -153 -98 -143 -94 -375 -186 -617 -246 -58 -14 -112 -29
-120 -32 -16 -7 -25 -8 -140 -22 -163 -20 -506 -19 -665 2 -186 25 -439 98
-623 181 -56 25 -106 46 -110 46 -5 0 -21 14 -38 31 -16 17 -63 48 -104 70
-41 21 -109 68 -150 105 -41 36 -95 79 -120 97 -51 35 -193 177 -218 216 -9
14 -46 67 -83 116 -90 121 -190 293 -263 450 -55 117 -61 137 -62 200 -1 41
-12 105 -26 155 -14 47 -31 109 -38 138 -7 29 -14 52 -16 50 -1 -2 2 -37 7
-77 6 -40 8 -75 5 -78 -24 -25 -70 116 -92 282 l-13 100 5 -95 c3 -52 11 -126
19 -165 21 -109 24 -144 15 -147 -19 -7 102 -362 169 -497 23 -44 37 -81 32
-81 -32 0 -133 170 -201 340 -90 225 -122 333 -114 388 4 28 1 64 -10 100 -27
97 -55 378 -44 447 5 33 11 112 13 175 2 86 12 159 40 290 59 279 79 345 168
541 14 31 23 59 20 62 -4 5 26 59 82 149 145 228 342 455 532 610 40 32 126
92 190 133 65 41 144 90 175 110 122 78 341 164 568 222 168 43 211 50 385 63
77 6 154 11 170 13 43 3 159 -2 325 -14z"/>
<path d="M1490 4730 c-20 -20 -20 -33 -20 -754 l0 -735 26 -20 c26 -20 37 -21
422 -21 l394 0 -6 -97 c-8 -117 -17 -144 -56 -167 -34 -19 -52 -47 -42 -63 17
-26 95 -33 367 -32 189 0 291 4 315 12 50 17 51 45 1 85 -43 34 -44 37 -56
190 l-6 72 128 0 c92 -1 123 -3 111 -11 -16 -9 -18 -29 -18 -194 0 -172 1
-185 19 -195 29 -15 364 -13 379 2 8 8 12 66 12 195 0 165 -2 184 -17 191 -10
4 29 9 85 12 94 5 106 7 123 29 18 22 19 49 19 752 0 716 0 729 -20 749 -20
20 -33 20 -1080 20 -1047 0 -1060 0 -1080 -20z m2121 -20 c18 -10 19 -28 19
-640 l0 -630 -1062 2 -1063 3 -3 617 c-2 607 -2 618 18 638 20 20 32 20 1046
20 688 0 1032 -3 1045 -10z m23 -1296 c9 -25 7 -120 -4 -148 l-10 -26 -1050 0
-1050 0 -10 26 c-11 29 -14 147 -3 157 3 4 482 7 1064 7 954 0 1057 -2 1063
-16z m-840 -236 c3 -13 8 -63 11 -113 7 -93 27 -146 62 -159 13 -5 14 -9 4
-19 -14 -14 -562 -18 -595 -4 -18 7 -17 10 13 35 35 30 50 75 51 157 0 28 3
67 6 88 l7 37 218 0 219 0 4 -22z m398 -113 c6 -14 14 -25 18 -25 4 0 12 11
18 25 15 33 38 32 60 -4 l18 -29 16 29 c19 33 42 38 57 12 6 -12 2 -36 -15
-82 -38 -100 -60 -115 -92 -62 l-18 30 -11 -30 c-15 -38 -48 -39 -66 -1 -8 15
-22 50 -32 79 -15 43 -16 54 -6 67 19 23 40 20 53 -9z"/>
<path d="M1610 4085 l0 -545 960 0 960 0 0 545 0 545 -960 0 -960 0 0 -545z
m1900 0 l0 -535 -942 2 -943 3 -3 520 c-1 286 0 526 3 533 3 9 202 12 945 12
l940 0 0 -535z"/>
<path d="M2044 4517 c-2 -7 -3 -62 -2 -123 l3 -109 120 0 120 0 0 120 0 120
-118 3 c-91 2 -119 0 -123 -11z m214 -109 l3 -88 -96 0 -95 0 0 83 c0 46 3 87
7 91 4 4 46 5 93 4 l85 -3 3 -87z"/>
<path d="M2047 4214 c-12 -13 -8 -219 5 -232 8 -8 49 -12 117 -12 l104 0 -23
-25 c-20 -22 -32 -25 -114 -27 l-91 -3 -3 -49 -3 -49 -50 49 -49 48 -26 -25
-26 -26 75 -76 c41 -41 77 -84 79 -94 3 -16 15 -18 123 -18 l120 0 3 105 3
105 75 75 75 76 -26 24 -25 24 -50 -49 -49 -49 -3 115 -3 114 -116 3 c-63 1
-118 -1 -122 -4z m213 -114 l0 -90 -95 0 -95 0 0 90 0 90 95 0 95 0 0 -90z
m-120 -265 c-30 -30 -58 -55 -62 -55 -10 0 -11 94 -1 103 3 4 31 7 62 7 l55 0
-54 -55z m120 -55 l0 -70 -72 0 -72 0 69 70 c38 39 71 70 72 70 2 0 3 -31 3
-70z"/>
<path d="M2534 3338 c-3 -5 -3 -20 0 -33 5 -19 12 -23 34 -21 15 2 27 8 26 15
-1 6 -2 19 -3 29 -1 18 -47 27 -57 10z"/>
<path d="M5233 3350 c0 -30 2 -43 4 -27 2 15 2 39 0 55 -2 15 -4 2 -4 -28z"/>
<path d="M5243 3220 c0 -30 2 -43 4 -27 2 15 2 39 0 55 -2 15 -4 2 -4 -28z"/>
<path d="M684 2865 c0 -49 1 -71 3 -48 2 23 2 64 0 90 -2 26 -3 8 -3 -42z"/>
<path d="M3984 2805 c-4 -8 -4 -22 0 -30 4 -13 35 -15 186 -15 167 0 181 -1
200 -20 29 -29 26 -74 -6 -99 -20 -16 -41 -21 -88 -21 -43 0 -71 -6 -93 -20
-62 -37 -86 -135 -34 -135 18 0 27 8 35 32 17 50 31 57 117 64 75 5 83 8 115
40 61 61 53 156 -18 199 -30 18 -50 20 -221 20 -158 0 -189 -2 -193 -15z"/>
<path d="M2582 2728 c-17 -17 -17 -359 0 -376 14 -14 364 -17 386 -4 9 7 12
53 10 198 l-3 189 -190 3 c-140 2 -194 -1 -203 -10z m255 -172 c39 -79 39
-110 1 -104 -14 2 -31 18 -44 41 l-21 38 -18 -41 c-14 -30 -24 -40 -42 -40
-39 0 -39 28 1 107 31 60 42 73 62 73 20 0 30 -13 61 -74z"/>
<path d="M3062 2728 c-17 -17 -17 -359 0 -376 14 -14 364 -17 386 -4 9 7 12
53 10 198 l-3 189 -190 3 c-140 2 -194 -1 -203 -10z m274 -113 c8 -20 -14 -45
-40 -45 -19 -1 -18 -2 7 -18 29 -17 41 -46 35 -79 -3 -15 -14 -18 -78 -18 -73
0 -75 1 -75 25 0 19 6 26 28 30 l28 5 -30 18 c-25 14 -31 25 -31 51 0 18 3 36
7 39 3 4 37 7 75 7 52 0 70 -4 74 -15z"/>
<path d="M3542 2728 c-18 -18 -17 -361 2 -377 9 -8 72 -11 202 -9 l189 3 0
195 0 195 -190 3 c-140 2 -194 -1 -203 -10z m263 -123 c19 -18 25 -35 25 -65
0 -65 -32 -90 -113 -90 -50 0 -66 4 -71 16 -8 21 -8 149 1 157 3 4 35 7 70 7
55 0 68 -4 88 -25z"/>
<path d="M3710 2540 c0 -23 5 -30 19 -30 28 0 47 26 31 45 -7 8 -21 15 -31 15
-14 0 -19 -7 -19 -30z"/>
<path d="M4042 2378 c-16 -16 -15 -23 4 -42 12 -12 37 -16 103 -16 99 0 135
15 115 47 -9 15 -27 18 -110 21 -69 2 -103 -1 -112 -10z"/>
<path d="M3905 2240 c-28 -11 -72 -60 -84 -93 -6 -16 -11 -79 -11 -141 l0
-113 -32 -9 -33 -10 -3 -121 -3 -121 39 -33 c21 -19 46 -54 56 -79 40 -100
139 -211 220 -245 69 -29 66 -38 66 195 0 175 -2 210 -14 210 -8 0 -22 7 -30
16 -13 13 -16 43 -16 174 0 131 3 161 16 174 8 9 22 16 30 16 11 0 14 19 14
95 l0 95 -97 -1 c-54 0 -107 -4 -118 -9z"/>
<path d="M4190 2157 c0 -90 1 -94 25 -105 l25 -12 0 -170 0 -170 -25 -12 -25
-11 0 -209 c0 -238 -4 -230 86 -178 65 37 136 117 177 200 27 55 32 77 35 155
4 87 5 91 38 126 l35 36 -3 119 -3 119 -30 5 c-27 5 -30 10 -37 53 -3 26 -16
62 -27 81 -32 51 -73 66 -180 66 l-91 0 0 -93z"/>
<path d="M1862 2205 c-29 -8 -62 -20 -73 -26 -39 -20 -100 -83 -120 -120 -23
-46 -25 -112 -3 -133 29 -30 41 -19 48 46 10 98 61 167 145 196 54 19 97 15
127 -12 26 -21 28 -30 32 -112 11 -242 -136 -536 -189 -377 -30 92 36 379 103
450 l21 23 -33 0 c-18 0 -47 -9 -65 -20 -69 -42 -135 -225 -136 -375 -2 -132
35 -187 124 -187 24 0 59 7 78 15 110 47 190 221 192 418 0 72 -4 95 -24 135
-40 80 -121 108 -227 79z"/>
<path d="M2549 2207 c-99 -28 -169 -87 -205 -172 -25 -61 -3 -125 44 -125 5 0
11 29 14 64 7 112 82 192 191 203 49 5 58 3 80 -19 55 -55 40 -272 -30 -430
-22 -49 -28 -56 -44 -48 -10 6 -34 10 -55 10 l-37 0 6 88 c7 105 47 249 88
316 l30 49 -42 -6 c-52 -7 -89 -42 -123 -116 -79 -178 -86 -376 -13 -437 26
-22 38 -25 90 -23 60 3 61 3 72 -30 28 -83 106 -94 145 -20 9 16 7 19 -11 19
-11 0 -37 16 -56 35 l-36 36 26 27 c14 15 40 57 57 93 87 188 76 424 -23 476
-40 20 -114 25 -168 10z m26 -567 c11 -17 -26 -24 -42 -7 -21 20 -8 40 17 27
10 -6 22 -15 25 -20z"/>
<path d="M3204 2200 c-50 -25 -84 -81 -84 -139 0 -47 22 -95 90 -196 54 -80
63 -102 62 -157 -1 -75 -55 -122 -112 -98 -62 26 -62 123 0 158 36 20 35 43
-3 56 -44 16 -79 -2 -106 -57 -60 -121 34 -241 171 -216 90 16 158 98 158 191
0 64 -16 103 -72 182 -74 102 -92 140 -85 183 4 19 14 44 23 54 19 21 64 25
82 7 14 -14 16 -94 2 -103 -19 -12 -10 -35 17 -41 50 -13 80 60 53 130 -23 61
-120 84 -196 46z"/>
<path d="M2166 1668 c-45 -64 27 -146 77 -90 10 10 17 32 17 49 0 57 -64 84
-94 41z"/>
<path d="M2856 1674 c-9 -8 -16 -31 -16 -49 0 -61 62 -89 94 -43 44 63 -26
145 -78 92z"/>
<path d="M3466 1668 c-44 -63 26 -145 78 -92 9 8 16 31 16 49 0 61 -62 89 -94
43z"/>
<path d="M3960 5438 c14 -6 68 -34 120 -61 52 -27 84 -39 70 -27 -27 23 -149
84 -190 94 l-25 6 25 -12z"/>
<path d="M1785 746 c28 -23 173 -91 180 -84 1 2 -45 27 -104 56 -73 37 -97 45
-76 28z"/>
</g>
</svg>
